HIERARCHY
ROOT hip
{
  OFFSET 0 0 0
  CHANNELS 6 Xposition Yposition Zposition Zrotation Yrotation Xrotation
  JOINT abdomen
  {
    OFFSET 0 20.6881 -0.73152
    CHANNELS 3 Zrotation Xrotation Yrotation
    JOINT chest
    {
      OFFSET 0 11.7043 -0.48768
      CHANNELS 3 Zrotation Xrotation Yrotation
      JOINT neck
      {
        OFFSET 0 22.1894 -2.19456
        CHANNELS 3 Zrotation Xrotation Yrotation
        JOINT head
        {
          OFFSET -0.24384 7.07133 1.2192
          CHANNELS 3 Zrotation Xrotation Yrotation
          JOINT leftEye
          {
            OFFSET 4.14528 8.04674 8.04672
            CHANNELS 3 Zrotation Xrotation Yrotation
            End Site
            {
              OFFSET 1 0 0
            }
          }
          JOINT rightEye
          {
            OFFSET -3.6576 8.04674 8.04672
            CHANNELS 3 Zrotation Xrotation Yrotation
            End Site
            {
              OFFSET 1 0 0
            }
          }
        }
      }
      JOINT rCollar
      {
        OFFSET -2.68224 19.2634 -4.8768
        CHANNELS 3 Zrotation Xrotation Yrotation
        JOINT rShldr
        {
          OFFSET -8.77824 -1.95073 1.46304
          CHANNELS 3 Zrotation Xrotation Yrotation
          JOINT rForeArm
          {
            OFFSET -28.1742 -1.7115 0.48768
            CHANNELS 3 Zrotation Xrotation Yrotation
            JOINT rHand
            {
              OFFSET -22.5879 0.773209 7.07136
              CHANNELS 3 Zrotation Xrotation Yrotation
              JOINT rThumb1
              {
                OFFSET -1.2192 -0.487915 3.41376
                CHANNELS 3 Zrotation Xrotation Yrotation
                JOINT rThumb2
                {
                  OFFSET -3.37035 -0.52449 3.41376
                  CHANNELS 3 Zrotation Xrotation Yrotation
                  End Site
                  {
                    OFFSET -1.78271 -1.18214 1.43049
                  }
                }
              }
              JOINT rIndex1
              {
                OFFSET -7.75947 0.938293 5.60832
                CHANNELS 3 Zrotation Xrotation Yrotation
                JOINT rIndex2
                {
                  OFFSET -2.54057 -0.884171 1.56538
                  CHANNELS 3 Zrotation Xrotation Yrotation
                  End Site
                  {
                    OFFSET -1.62519 -0.234802 1.16502
                  }
                }
              }
              JOINT rMid1
              {
                OFFSET -8.24714 1.18213 3.41376
                CHANNELS 3 Zrotation Xrotation Yrotation
                JOINT rMid2
                {
                  OFFSET -3.10165 -0.590103 1.0647
                  CHANNELS 3 Zrotation Xrotation Yrotation
                  End Site
                  {
                    OFFSET -2.48547 -0.328903 0.83742
                  }
                }
              }
              JOINT rRing1
              {
                OFFSET -8.82822 0.546677 1.51678
                CHANNELS 3 Zrotation Xrotation Yrotation
                JOINT rRing2
                {
                  OFFSET -2.60934 -0.819778 -0.0198488
                  CHANNELS 3 Zrotation Xrotation Yrotation
                  End Site
                  {
                    OFFSET -2.33842 -0.294052 0.168128
                  }
                }
              }
              JOINT rPinky1
              {
                OFFSET -8.27202 -0.0477905 -0.4584
                CHANNELS 3 Zrotation Xrotation Yrotation
                JOINT rPinky2
                {
                  OFFSET -1.82734 -0.647385 -0.700984
                  CHANNELS 3 Zrotation Xrotation Yrotation
                  End Site
                  {
                    OFFSET -1.69225 -0.51767 -0.607171
                  }
                }
              }
            }
          }
        }
      }
      JOINT lCollar
      {
        OFFSET 2.68224 19.2634 -4.8768
        CHANNELS 3 Zrotation Xrotation Yrotation
        JOINT lShldr
        {
          OFFSET 8.77824 -1.95073 1.46304
          CHANNELS 3 Zrotation Xrotation Yrotation
          JOINT lForeArm
          {
            OFFSET 28.1742 -1.7115 0.48768
            CHANNELS 3 Zrotation Xrotation Yrotation
            JOINT lHand
            {
              OFFSET 22.5879 0.773209 7.07136
              CHANNELS 3 Zrotation Xrotation Yrotation
              JOINT lThumb1
              {
                OFFSET 1.2192 -0.487915 3.41376
                CHANNELS 3 Zrotation Xrotation Yrotation
                JOINT lThumb2
                {
                  OFFSET 3.37035 -0.52449 3.41376
                  CHANNELS 3 Zrotation Xrotation Yrotation
                  End Site
                  {
                    OFFSET 1.78271 -1.18214 1.43049
                  }
                }
              }
              JOINT lIndex1
              {
                OFFSET 7.75947 0.938293 5.60832
                CHANNELS 3 Zrotation Xrotation Yrotation
                JOINT lIndex2
                {
                  OFFSET 2.54057 -0.884171 1.56538
                  CHANNELS 3 Zrotation Xrotation Yrotation
                  End Site
                  {
                    OFFSET 1.62519 -0.234802 1.16502
                  }
                }
              }
              JOINT lMid1
              {
                OFFSET 8.24714 1.18213 3.41376
                CHANNELS 3 Zrotation Xrotation Yrotation
                JOINT lMid2
                {
                  OFFSET 3.10165 -0.590103 1.0647
                  CHANNELS 3 Zrotation Xrotation Yrotation
                  End Site
                  {
                    OFFSET 2.48547 -0.328903 0.83742
                  }
                }
              }
              JOINT lRing1
              {
                OFFSET 8.82822 0.546677 1.51678
                CHANNELS 3 Zrotation Xrotation Yrotation
                JOINT lRing2
                {
                  OFFSET 2.60934 -0.819778 -0.0198488
                  CHANNELS 3 Zrotation Xrotation Yrotation
                  End Site
                  {
                    OFFSET 2.33842 -0.294052 0.168128
                  }
                }
              }
              JOINT lPinky1
              {
                OFFSET 8.27202 -0.0477905 -0.4584
                CHANNELS 3 Zrotation Xrotation Yrotation
                JOINT lPinky2
                {
                  OFFSET 1.82734 -0.647385 -0.700984
                  CHANNELS 3 Zrotation Xrotation Yrotation
                  End Site
                  {
                    OFFSET 1.69225 -0.51767 -0.607171
                  }
                }
              }
            }
          }
        }
      }
    }
  }
  JOINT rButtock
  {
    OFFSET -8.77824 4.35084 1.2192
    CHANNELS 3 Zrotation Xrotation Yrotation
    JOINT rThigh
    {
      OFFSET 0 -1.70687 -2.19456
      CHANNELS 3 Zrotation Xrotation Yrotation
      JOINT rShin
      {
        OFFSET 0 -36.8199 0.73152
        CHANNELS 3 Zrotation Xrotation Yrotation
        JOINT rFoot
        {
          OFFSET 0.73152 -45.1104 -5.12064
          CHANNELS 3 Zrotation Xrotation Yrotation
          End Site
          {
            OFFSET -1.1221 -3.69964 12.103
          }
        }
      }
    }
  }
  JOINT lButtock
  {
    OFFSET 8.77824 4.35084 1.2192
    CHANNELS 3 Zrotation Xrotation Yrotation
    JOINT lThigh
    {
      OFFSET 0 -1.70687 -2.19456
      CHANNELS 3 Zrotation Xrotation Yrotation
      JOINT lShin
      {
        OFFSET 0 -36.8199 0.73152
        CHANNELS 3 Zrotation Xrotation Yrotation
        JOINT lFoot
        {
          OFFSET -0.73152 -45.1104 -5.12064
          CHANNELS 3 Zrotation Xrotation Yrotation
          End Site
          {
            OFFSET 1.1221 -3.69964 12.103
          }
        }
      }
    }
  }
}
MOTION
Frames:	4
Frame Time:	0.00833333
10.723 83.2945 -7.01869 476.678 87.6663 479.455 6.84608 13.2728 0.0549971 0.093689 2.7839 0.533522 2.91443 -7.27982 1.85836 -3.3842 11.919 3.5969 -0.0 0.0 0.0 -0.0 0.0 0.0 -2.1971e-14 3.3975e-13 -5.6383e-14 0.447192 -9.86091 64.634 -17.6336 -10.2981 33.2033 -0.015342 -3.5332 -0.497196 -3.85762e-09 -2.62242e-10 -6.11628e-11 -6.66345e-09 -4.50163e-10 -1.08667e-10 -3.85761e-09 -2.62244e-10 -6.11736e-11 7.73091 5.47488 0.417314 -3.85762e-09 -2.62245e-10 -6.11683e-11 2.90554 0.965183 0.102902 -3.85761e-09 -2.62245e-10 -6.11726e-11 10.2786 0.731801 0.0259123 -3.85762e-09 -2.62243e-10 -6.11674e-11 2.22167 -0.733487 -0.20892 -2.19618e-14 3.39744e-13 -5.65826e-14 7.05658 -4.36754 -57.2467 18.146 -10.8444 -34.3486 0.0951834 -8.77049 1.24241 4.32336e-09 1.10346e-09 -7.74244e-10 7.47556e-09 1.91725e-09 -1.32032e-09 4.32336e-09 1.10346e-09 -7.74235e-10 -7.73091 5.47488 -0.417314 4.32336e-09 1.10346e-09 -7.74236e-10 -2.90554 0.965183 -0.102902 4.32336e-09 1.10346e-09 -7.74241e-10 -10.2786 0.731801 -0.0259123 4.32337e-09 1.10346e-09 -7.74247e-10 -2.22167 -0.733487 0.20892 -2.03217e-16 0.0 -3.88251e-19 -7.77583 12.0407 0.952276 0.0630167 12.249 0.79065 -2.73307 -22.9713 -6.89232 2.03217e-16 0.0 3.88251e-19 9.03886 -21.8863 -0.459334 0.120255 22.3424 -0.66078 1.42397 -2.25646 6.70124
11.2061 83.2979 -7.37704 464.401 87.4696 467.186 6.3486 13.4422 0.290071 0.217412 2.86514 0.58827 2.88052 -7.38131 1.8692 -3.40025 11.8944 3.61789 -0.0 0.0 0.0 -0.0 0.0 0.0 -2.3856e-15 -2.42418e-13 4.87022e-15 0.473664 -9.84102 64.598 -17.6321 -10.2966 33.2001 -0.0158309 -3.58977 -0.505178 -3.40409e-09 3.12697e-11 -1.39703e-10 -5.88006e-09 5.69287e-11 -2.44671e-10 -3.40408e-09 3.1268e-11 -1.39712e-10 7.73091 5.47488 0.417314 -3.40409e-09 3.12654e-11 -1.39709e-10 2.90554 0.965183 0.102902 -3.40408e-09 3.1265e-11 -1.39713e-10 10.2786 0.731801 0.0259123 -3.40409e-09 3.12668e-11 -1.39706e-10 2.22167 -0.733487 -0.20892 -2.38539e-15 -2.42418e-13 4.67144e-15 7.0126 -4.41182 -57.2504 18.1534 -10.8526 -34.3653 0.100208 -8.99209 1.27434 3.58074e-09 7.45987e-10 -7.82458e-10 6.19152e-09 1.29781e-09 -1.33732e-09 3.58074e-09 7.45985e-10 -7.82448e-10 -7.73091 5.47488 -0.417314 3.58074e-09 7.45988e-10 -7.82448e-10 -2.90554 0.965183 -0.102902 3.58073e-09 7.45988e-10 -7.82455e-10 -10.2786 0.731801 -0.0259123 3.58075e-09 7.45992e-10 -7.82461e-10 -2.22167 -0.733487 0.20892 -2.03217e-16 0.0 -3.88251e-19 -8.34096 12.0823 1.26199 0.0619383 12.5422 0.797823 -2.67389 -22.7387 -6.78881 2.03217e-16 0.0 3.88251e-19 8.58697 -21.7358 -0.457282 0.122046 22.8264 -0.669298 1.51648 -2.7591 6.91335
11.6826 83.3341 -7.69828 455.885 87.2639 458.702 5.93635 13.5979 0.515164 0.273451 2.88972 0.642232 2.88149 -7.40091 1.88897 -3.41768 11.8478 3.65 -0.0 0.0 0.0 -0.0 0.0 0.0 1.77953e-14 -3.359e-13 2.37501e-14 0.428151 -9.7203 64.5586 -17.6292 -10.2935 33.1938 -0.0167335 -3.69098 -0.519459 -3.68452e-09 2.8888e-10 -7.89767e-11 -6.36565e-09 5.03148e-10 -1.39945e-10 -3.68452e-09 2.88879e-10 -7.89851e-11 7.73091 5.47488 0.417314 -3.68452e-09 2.88876e-10 -7.89822e-11 2.90554 0.965183 0.102902 -3.68451e-09 2.88876e-10 -7.89853e-11 10.2786 0.731801 0.0259123 -3.68453e-09 2.88878e-10 -7.89786e-11 2.22167 -0.733487 -0.20892 1.78008e-14 -3.35899e-13 2.35323e-14 7.0407 -4.35942 -57.1787 18.1795 -10.881 -34.4238 0.104446 -9.177 1.301 3.78485e-09 5.6005e-10 -7.82577e-10 6.54426e-09 9.75892e-10 -1.3353e-09 3.78485e-09 5.60048e-10 -7.82567e-10 -7.73091 5.47488 -0.417314 3.78486e-09 5.6005e-10 -7.82567e-10 -2.90554 0.965183 -0.102902 3.78485e-09 5.6005e-10 -7.82574e-10 -10.2786 0.731801 -0.0259123 3.78486e-09 5.60053e-10 -7.82582e-10 -2.22167 -0.733487 0.20892 -2.03217e-16 0.0 -3.88251e-19 -8.72985 12.0765 1.67307 0.0600914 12.8343 0.799955 -2.67008 -22.4143 -6.84707 2.03217e-16 0.0 3.88251e-19 8.3055 -21.4328 -0.340682 0.123368 23.0663 -0.672206 1.58545 -3.2415 6.98775
12.1406 83.3907 -7.92054 445.467 87.3015 448.32 5.55142 13.7463 0.742603 0.293362 2.88482 0.697034 2.8965 -7.38252 1.91425 -3.43148 11.7938 3.69069 -0.0 0.0 0.0 -0.0 0.0 0.0 4.03958e-14 -1.89728e-13 2.33323e-14 0.332721 -9.53778 64.5146 -17.6247 -10.2887 33.1838 -0.0180182 -3.82654 -0.538595 -4.33917e-09 5.62651e-10 6.42975e-11 -7.49842e-09 9.78014e-10 1.07496e-10 -4.33917e-09 5.62651e-10 6.42899e-11 7.73091 5.47488 0.417314 -4.33917e-09 5.62648e-10 6.42939e-11 2.90554 0.965183 0.102902 -4.33916e-09 5.62648e-10 6.4292e-11 10.2786 0.731801 0.0259123 -4.33918e-09 5.62651e-10 6.42971e-11 2.22167 -0.733487 -0.20892 4.04128e-14 -1.89727e-13 2.30808e-14 7.11058 -4.24889 -57.0595 18.2183 -10.9235 -34.5115 0.10832 -9.34479 1.32521 4.46238e-09 4.27017e-10 -7.65952e-10 7.71541e-09 7.45762e-10 -1.3016e-09 4.46238e-09 4.27015e-10 -7.65941e-10 -7.73091 5.47488 -0.417314 4.46239e-09 4.27016e-10 -7.65944e-10 -2.90554 0.965183 -0.102902 4.46238e-09 4.27016e-10 -7.65951e-10 -10.2786 0.731801 -0.0259123 4.46239e-09 4.27019e-10 -7.6596e-10 -2.22167 -0.733487 0.20892 -2.03217e-16 0.0 -3.88251e-19 -9.02454 12.0257 2.15645 0.0576302 13.1332 0.798285 -2.69781 -22.0085 -7.00877 2.03217e-16 0.0 3.88251e-19 8.13189 -21.0079 -0.0967706 0.123809 23.1079 -0.670138 1.63126 -3.68733 6.95466
